<svg width="65" height="13" viewBox="0 0 65 13" fill="none" xmlns="http://www.w3.org/2000/svg">
<g id="Property 1=5bubs">
<g id="Small bubble">
<path d="M64 6.5C64 9.53757 61.5376 12 58.5 12C55.4624 12 53 9.53757 53 6.5C53 3.46243 55.4624 1 58.5 1C61.5376 1 64 3.46243 64 6.5Z" fill="#D9B79A"/>
<path d="M61.9845 4.52746L61.8737 4.29923C61.3395 3.19914 60.2229 2.50177 59 2.50444M58.1902 10.8114L58.1335 10.8055C56.5398 10.6374 55.1763 9.58698 54.6072 8.08889M64 6.5C64 9.53757 61.5376 12 58.5 12C55.4624 12 53 9.53757 53 6.5C53 3.46243 55.4624 1 58.5 1C61.5376 1 64 3.46243 64 6.5Z" stroke="#324B48"/>
</g>
<g id="Small bubble_2">
<path d="M51 6.5C51 9.53757 48.5376 12 45.5 12C42.4624 12 40 9.53757 40 6.5C40 3.46243 42.4624 1 45.5 1C48.5376 1 51 3.46243 51 6.5Z" fill="#D9B79A"/>
<path d="M48.9845 4.52746L48.8737 4.29923C48.3395 3.19914 47.2229 2.50177 46 2.50444M45.1902 10.8114L45.1335 10.8055C43.5398 10.6374 42.1763 9.58698 41.6072 8.08889M51 6.5C51 9.53757 48.5376 12 45.5 12C42.4624 12 40 9.53757 40 6.5C40 3.46243 42.4624 1 45.5 1C48.5376 1 51 3.46243 51 6.5Z" stroke="#324B48"/>
</g>
<g id="Small bubble_3">
<path d="M38 6.5C38 9.53757 35.5376 12 32.5 12C29.4624 12 27 9.53757 27 6.5C27 3.46243 29.4624 1 32.5 1C35.5376 1 38 3.46243 38 6.5Z" fill="#D9B79A"/>
<path d="M35.9845 4.52746L35.8737 4.29923C35.3395 3.19914 34.2229 2.50177 33 2.50444M32.1902 10.8114L32.1335 10.8055C30.5398 10.6374 29.1763 9.58698 28.6072 8.08889M38 6.5C38 9.53757 35.5376 12 32.5 12C29.4624 12 27 9.53757 27 6.5C27 3.46243 29.4624 1 32.5 1C35.5376 1 38 3.46243 38 6.5Z" stroke="#324B48"/>
</g>
<g id="Small bubble_4">
<path d="M25 6.5C25 9.53757 22.5376 12 19.5 12C16.4624 12 14 9.53757 14 6.5C14 3.46243 16.4624 1 19.5 1C22.5376 1 25 3.46243 25 6.5Z" fill="#D9B79A"/>
<path d="M22.9845 4.52746L22.8737 4.29923C22.3395 3.19914 21.2229 2.50177 20 2.50444M19.1902 10.8114L19.1335 10.8055C17.5398 10.6374 16.1763 9.58698 15.6072 8.08889M25 6.5C25 9.53757 22.5376 12 19.5 12C16.4624 12 14 9.53757 14 6.5C14 3.46243 16.4624 1 19.5 1C22.5376 1 25 3.46243 25 6.5Z" stroke="#324B48"/>
</g>
<g id="Small bubble_5">
<path d="M12 6.5C12 9.53757 9.53757 12 6.5 12C3.46243 12 1 9.53757 1 6.5C1 3.46243 3.46243 1 6.5 1C9.53757 1 12 3.46243 12 6.5Z" fill="#D9B79A"/>
<path d="M9.98452 4.52746L9.8737 4.29923C9.33951 3.19914 8.22292 2.50177 7 2.50444M6.1902 10.8114L6.13352 10.8055C4.53983 10.6374 3.17627 9.58698 2.60722 8.08889M12 6.5C12 9.53757 9.53757 12 6.5 12C3.46243 12 1 9.53757 1 6.5C1 3.46243 3.46243 1 6.5 1C9.53757 1 12 3.46243 12 6.5Z" stroke="#324B48"/>
</g>
</g>
</svg>
